<svg xmlns="http://www.w3.org/2000/svg" width="50" height="41.69" viewBox="0 0 50 41.69">
  <g id="Group_1170" data-name="Group 1170" transform="translate(1198 -3364)">
    <g id="Group_1169" data-name="Group 1169" transform="translate(-1189 3297)">
      <g id="Group_1031" data-name="Group 1031" transform="translate(13.887 86.119)">
        <path id="Path_2572" data-name="Path 2572" d="M212.211,433.291a.341.341,0,1,1-.1-.241A.344.344,0,0,1,212.211,433.291Z" transform="translate(-211.53 -432.95)" fill="#333"/>
      </g>
      <g id="Group_1032" data-name="Group 1032" transform="translate(3 67)">
        <path id="Path_2573" data-name="Path 2573" d="M24.606,77.321l-.121,0-1.277-5.77.168-.023a1.146,1.146,0,0,0,.722-.4l.087-.1.115.072a1.4,1.4,0,0,0,.744.214h1.042a.365.365,0,0,0,.365-.365V68.858a.365.365,0,0,0-.365-.365H25.044a1.4,1.4,0,0,0-.763.226l-.113.073-.09-.1a1.146,1.146,0,0,0-.857-.387H20.145a1.153,1.153,0,0,0-1.068.734l-.039.1H17.7a1.2,1.2,0,0,0,0,2.4h2.839v1.206a.365.365,0,0,0,.73,0V71.535h1.194l1.348,6.091L21.3,82.088a1.687,1.687,0,0,1-1.468.858H13.514l-.016-.138a4.222,4.222,0,0,0-8.385,0l-.016.138H3.728l0-.159a7.064,7.064,0,0,1,7.056-6.926h3.7a.686.686,0,0,1,.686.686v4.68a.365.365,0,0,0,.365.365h2.773a2.951,2.951,0,0,0,2.952-2.949l0-1.731a.365.365,0,0,0-.364-.365.366.366,0,0,0-.365.364l0,1.732a2.221,2.221,0,0,1-2.222,2.219H15.9V76.545a1.415,1.415,0,0,0-.167-.665l-.071-.133.131-.076a1.406,1.406,0,0,0-.7-2.626h-1.9a1.393,1.393,0,0,0-.469.081l-.208.074V68.407A1.409,1.409,0,0,0,11.1,67H7.741a4.778,4.778,0,0,0-4.682,3.991l-.005.022a.357.357,0,0,0-.017.107v.032A4.828,4.828,0,0,0,3,71.741v2.711a1.415,1.415,0,0,0,1.2,1.391l.051.008,1.3,1.3-.117.11A7.716,7.716,0,0,0,3,82.917v.393a.365.365,0,0,0,.365.365H6.484l-.038.187a.4.4,0,0,0-.007.073,2.864,2.864,0,0,0,.7,1.877l.225.258h-4a.365.365,0,1,0,0,.73H9.306a2.869,2.869,0,0,0,2.866-2.866.4.4,0,0,0-.007-.073l-.038-.187h7.706a2.424,2.424,0,0,0,1.942-.98l.047-.064h.972l-.089.216a2.859,2.859,0,0,0,.487,2.965l.225.258h-7.1a.365.365,0,1,0,0,.73h9.04a2.865,2.865,0,0,0,2.651-3.955l-.089-.216H29a.365.365,0,0,0,.365-.365A4.931,4.931,0,0,0,24.606,77.321Zm.438-8.1h.677v1.355h-.677a.677.677,0,1,1,0-1.355ZM17.7,70.805a.469.469,0,0,1,0-.938H19v.523a1.152,1.152,0,0,0,.023.228l.038.188Zm2.449,0a.416.416,0,0,1-.415-.415v-.942a.416.416,0,0,1,.415-.415h3.076a.416.416,0,0,1,.415.415v.942a.416.416,0,0,1-.415.415Zm-6.957,2.969h1.9a.677.677,0,1,1,0,1.355h-1.9a.677.677,0,0,1,0-1.355Zm-9.458.677V71.741c0-.023,0-.046,0-.069l0-.183H9.591a.365.365,0,0,0,0-.73H3.846l.063-.2A4.053,4.053,0,0,1,5.34,68.53a3.972,3.972,0,0,1,2.4-.8H11.1a.678.678,0,0,1,.677.677v6.045a.678.678,0,0,1-.677.677h-6.7A.678.678,0,0,1,3.73,74.452Zm1.558,1.407h2.16l-.512.292a7.862,7.862,0,0,0-.71.459l-.108.079Zm6.162,8a.4.4,0,0,0-.007.073,2.143,2.143,0,0,1-2.115,2.136H9.246a2.127,2.127,0,0,1-2.077-2.135.4.4,0,0,0-.007-.073l-.038-.187h4.363Zm-5.623-.917.028-.18a3.472,3.472,0,0,1,1.293-2.2l.008-.006a3.489,3.489,0,0,1,4.429.108,3.5,3.5,0,0,1,1.171,2.1l.029.18Zm19.552,3.126H25.3A2.136,2.136,0,0,1,23.616,82.7l.046-.066H27.05l.046.066a2.136,2.136,0,0,1-1.719,3.375ZM22.242,81.9l2.164-3.854.093,0A4.239,4.239,0,0,1,28.6,81.725l.023.176Z" transform="translate(-3 -67)" fill="#333"/>
      </g>
      <g id="Group_1033" data-name="Group 1033" transform="translate(20.566 74.48)">
        <path id="Path_2574" data-name="Path 2574" d="M340.132,210.511a.341.341,0,1,1-.341-.341A.341.341,0,0,1,340.132,210.511Z" transform="translate(-339.45 -210.17)" fill="#333"/>
      </g>
    </g>
    <text id="Delivery" transform="translate(-1173 3401.69)" fill="#333" font-size="14" font-family="SegoeUI, Segoe UI"><tspan x="-24.794" y="0">Delivery</tspan></text>
  </g>
</svg>
